<?xml version="1.0" encoding="UTF-8" standalone="no"?>
<svg
   xmlns:dc="http://purl.org/dc/elements/1.1/"
   xmlns:cc="http://creativecommons.org/ns#"
   xmlns:rdf="http://www.w3.org/1999/02/22-rdf-syntax-ns#"
   xmlns:svg="http://www.w3.org/2000/svg"
   xmlns="http://www.w3.org/2000/svg"
   xmlns:sodipodi="http://sodipodi.sourceforge.net/DTD/sodipodi-0.dtd"
   xmlns:inkscape="http://www.inkscape.org/namespaces/inkscape"
   version="1.2"
   id="svg2"
   width="0.3in"
   height="0.33in"
   viewBox="0 0 30.0 33.0"
   xml:space="preserve"
   inkscape:version="0.48.1 r9760"
   sodipodi:docname="mcp3208_icon.svg"><metadata
   id="metadata44"><rdf:RDF><cc:Work
       rdf:about=""><dc:format>image/svg+xml</dc:format><dc:type
         rdf:resource="http://purl.org/dc/dcmitype/StillImage" /></cc:Work></rdf:RDF></metadata><defs
   id="defs42" /><sodipodi:namedview
   pagecolor="#ffffff"
   bordercolor="#666666"
   borderopacity="1"
   objecttolerance="10"
   gridtolerance="10"
   guidetolerance="10"
   inkscape:pageopacity="0"
   inkscape:pageshadow="2"
   inkscape:window-width="1109"
   inkscape:window-height="700"
   id="namedview40"
   showgrid="false"
   inkscape:zoom="8.8215486"
   inkscape:cx="29.426695"
   inkscape:cy="14.85"
   inkscape:window-x="0"
   inkscape:window-y="0"
   inkscape:window-maximized="0"
   inkscape:current-layer="icon" />

<g
   id="icon">
  <rect
   id="middle"
   x="0"
   y="3"
   fill="#303030"
   width="30.0"
   height="27.0" />
  <rect
   id="top"
   x="0"
   y="3.0"
   fill="#3D3D3D"
   width="30.0"
   height="2.46" />
  <rect
   id="bottom"
   x="0"
   y="27.54"
   fill="#000000"
   width="30.0"
   height="2.46" />
	<polygon
   id="right"
   fill="#141414"
   points="30.0,3 29.25,5.46 29.25,27.54 30.0,30.0" /> 
	<polygon
   id="left"
   fill="#1F1F1F"
   points="0,3 0.75,5.46 0.75,27.54 0,30.0" />
  
	<polygon
   id="left-upper-rect"
   fill="#1C1C1C"
   points="5,11.5 0.75,11.46 0.56,13.58 0.56,16.5 5,16.5" />
	<polygon
   id="left-lower-rect"
   fill="#383838"
   points="0.75,21.55 5,21.55 5,16.5 0.56,16.5 0.56,19.42" />

  <path
   id="slot"
   fill="#262626"
   d="M0.56,13.58v5.83c1.47-0.17,2.62-1.4,2.62-2.92C3.18,14.97,2.04,13.75,0.56,13.58z" />
  <path
   id="cover"
   fill="#303030"
   d="M0.75,5.46V11.45c2.38,0.45,4.19,2.53,4.19,5.04c0,2.51-1.8,4.6-4.19,5.05V21.55h5.0V5.46H0.75z" />
  
	<circle
   fill="#212121"
   cx="6.5"
   cy="23.47"
   r="2.06"
   id="circle13" />
 
  <text
   id="label"
   x="1.3358779"
   y="18.641222"
   font-size="8"
   style="font-size:8px;line-height:125%;text-anchor:start;fill:#dddddd;stroke:none;font-family:OCRA"
   sodipodi:linespacing="125%"><tspan
     style="font-size:7.77777767px;font-style:normal;font-variant:normal;font-weight:normal;font-stretch:condensed;text-align:start;line-height:125%;writing-mode:lr-tb;text-anchor:start;font-family:Abadi MT Condensed Extra Bold;-inkscape-font-specification:'Abadi MT Condensed Extra Bold, Condensed'"
     id="tspan3021">MCP3208</tspan></text>


	<rect
   id="connector0pin"
   x="3.5"
   y="28.66"
   fill="#8C8C8C"
   width="3"
   height="4.34" />
  <rect
   id="connector0terminal"
   x="3.5"
   y="30.0"
   fill="#8C8C8C"
   width="3"
   height="3" />
	<polygon
   fill="#8C8C8C"
   points="3.5,28.66 3.5,30.66 6.5,30.66 8.5,29.74 8.5,28.66  "
   id="polygon18" />
  <rect
   id="connector5pin"
   x="3.5"
   fill="#8C8C8C"
   width="3"
   height="4.34" />
  <rect
   id="connector5terminal"
   x="3.5"
   fill="#8C8C8C"
   width="3"
   height="3" />
	<polygon
   fill="#8C8C8C"
   points="8.5,4.34 8.5,3.26 6.5,2.34 3.5,2.34 3.5,4.34"
   id="polygon22" />
  <rect
   id="connector2pin"
   x="23.5"
   y="28.66"
   fill="#8C8C8C"
   width="3"
   height="4.34" />
  <rect
   id="connector2terminal"
   x="23.5"
   y="30.0"
   fill="#8C8C8C"
   width="3"
   height="3" />
	<polygon
   fill="#8C8C8C"
   points="21.5,28.66 21.5,29.74 23.5,30.66 26.5,30.66 26.5,28.66"
   id="polygon26" />
  <rect
   id="connector3pin"
   x="23.5"
   y="0"
   fill="#8C8C8C"
   width="3"
   height="4.34" />
  <rect
   id="connector3terminal"
   x="23.5"
   y="0"
   fill="#8C8C8C"
   width="3"
   height="3" />
	<polygon
   fill="#8C8C8C"
   points="26.5,4.34 26.5,2.34 23.5,2.34 21.5,3.26 21.5,4.34  "
   id="polygon30" />

        <rect
   id="connector1pin"
   x="13.5"
   y="28.66"
   fill="#8C8C8C"
   width="3"
   height="4.34" />
        <rect
   id="connector1terminal"
   x="13.5"
   y="30.0"
   fill="#8C8C8C"
   width="3"
   height="3" />
        <polygon
   fill="#8C8C8C"
   points="11.5,28.66 11.5,29.74 13.5,30.66 16.5,30.66 18.5,29.74 18.5,28.66"
   id="polygon34" />            
        <rect
   id="connector4pin"
   x="13.5"
   y="0"
   fill="#8C8C8C"
   width="3"
   height="4.34" />
        <rect
   id="connector4terminal"
   x="13.5"
   fill="#8C8C8C"
   width="3"
   height="3" />
        <polygon
   fill="#8C8C8C"
   points="18.5,4.34 18.5,3.26 16.5,2.34 13.5,2.34 11.5,3.26 11.5,4.34"
   id="polygon38" />
        

</g>
</svg>