<?xml version='1.0' encoding='UTF-8' standalone='no'?>
<!-- Generator: Adobe Illustrator 13.0.0, SVG Export Plug-In . SVG Version: 6.00 Build 14948)  -->
<svg xmlns="http://www.w3.org/2000/svg" width="32px" xml:space="preserve" xmlns:xml="http://www.w3.org/XML/1998/namespace" x="0px" version="1.0" y="0px" height="32px" viewBox="0 0 32 32" id="svg2" enable-background="new 0 0 32 32">
 <metadata  id="metadata26">
  <rdf:RDF xmlns:rdf="http://www.w3.org/1999/02/22-rdf-syntax-ns#">
   <cc:Work xmlns:cc="http://creativecommons.org/ns#" rdf:about="" xmlns:rdf="http://www.w3.org/1999/02/22-rdf-syntax-ns#">
    <dc:format xmlns:dc="http://purl.org/dc/elements/1.1/">image/svg+xml</dc:format>
    <dc:type xmlns:dc="http://purl.org/dc/elements/1.1/" rdf:resource="http://purl.org/dc/dcmitype/StillImage" xmlns:rdf="http://www.w3.org/1999/02/22-rdf-syntax-ns#"/>
    <dc:title xmlns:dc="http://purl.org/dc/elements/1.1/"/>
   </cc:Work>
  </rdf:RDF>
 </metadata>
 <defs  id="defs24"/>
 <sodipodi:namedview xmlns:sodipodi="http://sodipodi.sourceforge.net/DTD/sodipodi-0.dtd" showgrid="false" objecttolerance="10" pagecolor="#ffffff" bordercolor="#666666" id="namedview22" borderopacity="1" guidetolerance="10" gridtolerance="10"/>
 <g  id="icon">
  <g  id="part">
   <g  id="Transistor_legs">
    <rect  width="2.692" x="14.641" y="31.79" fill="#8C8C8C" height="8.989" id="rect9479"/>
    <rect  width="2.693" x="5.669" y="31.79" fill="#8C8C8C" height="8.989" id="rect9481"/>
    <rect  width="2.693" x="23.614" y="31.79" fill="#8C8C8C" height="8.989" id="rect9483"/>
   </g>
   <g  id="Transistor_pins">
    <rect  width="2.692" x="14.641" y="20.104" fill="#8C8C8C" height="11.688" id="rect9506_1_"/>
    <path  fill="#8C8C8C" id="path9510_1_" d="M9.778,20.104v4.146c0,0.528-0.978,1.323-1.498,1.78c-1.282,1.113-2.61,2.273-2.61,3.74     v2.023h2.693c0,0,0-1.25,0-1.512c0-0.646,1.13-1.736,1.688-2.211c1.246-1.088,2.431-2.113,2.431-3.437v-4.53H9.778L9.778,20.104z     "/>
    <path  fill="#8C8C8C" id="path9514_1_" d="M22.195,20.104v4.146c0,0.528,0.977,1.323,1.499,1.78c1.285,1.113,2.61,2.273,2.61,3.74     v2.023h-2.693c0,0,0-1.25,0-1.512c0-0.646-1.13-1.736-1.686-2.211c-1.248-1.088-2.433-2.113-2.433-3.437v-4.53H22.195     L22.195,20.104z"/>
   </g>
   <rect  width="16.598" x="7.688" y="7.512" fill="#1A1A1A" height="12.588" id="rect9553_1_"/>
   <path  fill="#141414" id="path9555_1_" d="M23.029,7.512v3.066v10.286v2.303c0.79-0.891,1.256-1.941,1.256-3.065l0,0V7.512H23.029z    "/>
   <path  fill="#242424" id="path9557_1_" d="M8.945,7.512H7.69v12.588l0,0c0,1.125,0.466,2.175,1.256,3.065v-2.303V10.58L8.945,7.512    L8.945,7.512z"/>
   <path  fill="#1F1F1F" id="path9559_1_" d="M7.688,7.512L7.688,7.512c0,1.125,0.466,2.176,1.256,3.066h14.095    c0.79-0.891,1.256-1.941,1.256-3.066l0,0H7.688z"/>
   <path  fill="#141414" id="path9561_1_" d="M15.987,1.689c-4.584,0-8.3,2.607-8.3,5.827h16.598    C24.285,4.297,20.572,1.689,15.987,1.689z"/>
   <rect  width="14.096" x="8.945" y="10.58" height="12.587" id="rect9563_1_"/>
  </g>
  <g  id="label">
   <path  fill="#999999" id="path20" d="M11.907,19.639v-6.75h2.701v1.349h1.35v1.351h1.351v-2.702h2.699v6.75h-2.699v-1.35h-1.351v-1.35h-1.35    v2.701H11.907z"/>
  </g>
 </g>
 <rect  width="16.244274" x="7.8167934" y="7.4503818" height="13.923664" style="fill:#000000" id="rect3005"/>
 <g style="font-size:6px;font-style:normal;font-weight:normal;line-height:125%;letter-spacing:0px;word-spacing:0px;fill:#e6e6e6;fill-opacity:1;stroke:none;font-family:DroidSans" id="text3007" xml:space="preserve">
  <text x="8.0610676" y="16.122137" id="tspan3009">DS18</text>
 </g>
</svg>
