<?xml version='1.0' encoding='UTF-8' standalone='no'?>
<svg xmlns="http://www.w3.org/2000/svg" width="0.3in" xml:space="preserve" xmlns:xml="http://www.w3.org/XML/1998/namespace" version="1.2" height="0.33in" viewBox="0 0 30.0 33.0" id="svg2">
 <metadata  id="metadata3890">
  <rdf:RDF xmlns:rdf="http://www.w3.org/1999/02/22-rdf-syntax-ns#">
   <cc:Work xmlns:cc="http://creativecommons.org/ns#" rdf:about="" xmlns:rdf="http://www.w3.org/1999/02/22-rdf-syntax-ns#">
    <dc:format xmlns:dc="http://purl.org/dc/elements/1.1/">image/svg+xml</dc:format>
    <dc:type xmlns:dc="http://purl.org/dc/elements/1.1/" rdf:resource="http://purl.org/dc/dcmitype/StillImage" xmlns:rdf="http://www.w3.org/1999/02/22-rdf-syntax-ns#"/>
    <dc:title xmlns:dc="http://purl.org/dc/elements/1.1/"/>
   </cc:Work>
  </rdf:RDF>
 </metadata>
 <defs  id="defs3888"/>
 <sodipodi:namedview xmlns:sodipodi="http://sodipodi.sourceforge.net/DTD/sodipodi-0.dtd" showgrid="false" objecttolerance="10" pagecolor="#ffffff" bordercolor="#666666" id="namedview3886" borderopacity="1" guidetolerance="10" gridtolerance="10"/>
 <g  id="icon">
  <rect  width="30.0" x="0" y="3" fill="#303030" height="27.0" id="middle"/>
  <rect  width="30.0" x="0" y="3.0" fill="#3D3D3D" height="2.46" id="top"/>
  <rect  width="30.0" x="0" y="27.54" fill="#000000" height="2.46" id="bottom"/>
  <polygon  fill="#141414" points="30.0,3 29.25,5.46 29.25,27.54 30.0,30.0" id="right"/>
  <polygon  fill="#1F1F1F" points="0,3 0.75,5.46 0.75,27.54 0,30.0" id="left"/>
  <polygon  fill="#1C1C1C" points="5,11.5 0.75,11.46 0.56,13.58 0.56,16.5 5,16.5" id="left-upper-rect"/>
  <polygon  fill="#383838" points="0.75,21.55 5,21.55 5,16.5 0.56,16.5 0.56,19.42" id="left-lower-rect"/>
  <path  fill="#262626" id="slot" d="M0.56,13.58v5.83c1.47-0.17,2.62-1.4,2.62-2.92C3.18,14.97,2.04,13.75,0.56,13.58z"/>
  <path  fill="#303030" id="cover" d="M0.75,5.46V11.45c2.38,0.45,4.19,2.53,4.19,5.04c0,2.51-1.8,4.6-4.19,5.05V21.55h5.0V5.46H0.75z"/>
  <circle  fill="#212121" cx="6.5" cy="23.47" r="2.06" id="circle3859"/>
  <g style="font-size:8px;text-anchor:start;fill:#dddddd;stroke:none;font-family:OCRA" id="label" font-size="8">
   <text x="3.8549619" y="17.633587" style="font-size:4.44444418px" id="tspan3911">LH1500AT</text>
  </g>
  <rect  width="3" x="3.5" y="28.66" fill="#8C8C8C" height="4.34" id="connector0pin"/>
  <rect  width="3" x="3.5" y="30.0" fill="#8C8C8C" height="3" id="connector0terminal"/>
  <polygon  fill="#8C8C8C" points="3.5,28.66 3.5,30.66 6.5,30.66 8.5,29.74 8.5,28.66  " id="polygon3864"/>
  <rect  width="3" x="3.5" fill="#8C8C8C" height="4.34" id="connector5pin"/>
  <rect  width="3" x="3.5" fill="#8C8C8C" height="3" id="connector5terminal"/>
  <polygon  fill="#8C8C8C" points="8.5,4.34 8.5,3.26 6.5,2.34 3.5,2.34 3.5,4.34" id="polygon3868"/>
  <rect  width="3" x="23.5" y="28.66" fill="#8C8C8C" height="4.34" id="connector2pin"/>
  <rect  width="3" x="23.5" y="30.0" fill="#8C8C8C" height="3" id="connector2terminal"/>
  <polygon  fill="#8C8C8C" points="21.5,28.66 21.5,29.74 23.5,30.66 26.5,30.66 26.5,28.66" id="polygon3872"/>
  <rect  width="3" x="23.5" y="0" fill="#8C8C8C" height="4.34" id="connector3pin"/>
  <rect  width="3" x="23.5" y="0" fill="#8C8C8C" height="3" id="connector3terminal"/>
  <polygon  fill="#8C8C8C" points="26.5,4.34 26.5,2.34 23.5,2.34 21.5,3.26 21.5,4.34  " id="polygon3876"/>
  <rect  width="3" x="13.5" y="28.66" fill="#8C8C8C" height="4.34" id="connector1pin"/>
  <rect  width="3" x="13.5" y="30.0" fill="#8C8C8C" height="3" id="connector1terminal"/>
  <polygon  fill="#8C8C8C" points="11.5,28.66 11.5,29.74 13.5,30.66 16.5,30.66 18.5,29.74 18.5,28.66" id="polygon3880"/>
  <rect  width="3" x="13.5" y="0" fill="#8C8C8C" height="4.34" id="connector4pin"/>
  <rect  width="3" x="13.5" fill="#8C8C8C" height="3" id="connector4terminal"/>
  <polygon  fill="#8C8C8C" points="18.5,4.34 18.5,3.26 16.5,2.34 13.5,2.34 11.5,3.26 11.5,4.34" id="polygon3884"/>
 </g>
</svg>
